<mxfile host="65bd71144e" scale="1" border="10">
    <diagram id="59DvSauhzj3vqoOBRgNi" name="iterator">
        <mxGraphModel dx="1632" dy="886" grid="1" gridSize="10" guides="1" tooltips="1" connect="1" arrows="1" fold="1" page="1" pageScale="1" pageWidth="827" pageHeight="1169" background="#FFFFFF" math="0" shadow="0">
            <root>
                <mxCell id="w9Iu98WscyFDLbroQzuf-0"/>
                <mxCell id="w9Iu98WscyFDLbroQzuf-1" parent="w9Iu98WscyFDLbroQzuf-0"/>
                <mxCell id="Yrwoq0YL18L5McrpzAKP-1" value="std::vector::erase()" style="text;strokeColor=#666666;fillColor=#f5f5f5;html=1;fontSize=24;fontStyle=1;verticalAlign=middle;align=center;shadow=0;labelBorderColor=none;fontColor=#333333;" parent="w9Iu98WscyFDLbroQzuf-1" vertex="1">
                    <mxGeometry x="310" y="260" width="230" height="40" as="geometry"/>
                </mxCell>
                <mxCell id="Yrwoq0YL18L5McrpzAKP-21" value="value0" style="rounded=0;whiteSpace=wrap;html=1;shadow=0;labelBorderColor=none;strokeColor=#82b366;fillColor=#d5e8d4;fontColor=#000000;" parent="w9Iu98WscyFDLbroQzuf-1" vertex="1">
                    <mxGeometry x="267.5" y="340" width="80" height="40" as="geometry"/>
                </mxCell>
                <mxCell id="Yrwoq0YL18L5McrpzAKP-22" value="value1" style="rounded=0;whiteSpace=wrap;html=1;shadow=0;labelBorderColor=none;strokeColor=#82b366;fillColor=#d5e8d4;fontColor=#000000;" parent="w9Iu98WscyFDLbroQzuf-1" vertex="1">
                    <mxGeometry x="347.5" y="340" width="80" height="40" as="geometry"/>
                </mxCell>
                <mxCell id="72" value="" style="rounded=0;whiteSpace=wrap;html=1;shadow=0;labelBorderColor=none;strokeColor=#666666;fillColor=#f5f5f5;fontColor=#333333;" vertex="1" parent="w9Iu98WscyFDLbroQzuf-1">
                    <mxGeometry x="507.5" y="340" width="80" height="40" as="geometry"/>
                </mxCell>
                <mxCell id="73" value="value2" style="rounded=0;whiteSpace=wrap;html=1;shadow=0;labelBorderColor=none;strokeColor=#82b366;fillColor=#d5e8d4;fontColor=#000000;" vertex="1" parent="w9Iu98WscyFDLbroQzuf-1">
                    <mxGeometry x="427.5" y="340" width="80" height="40" as="geometry"/>
                </mxCell>
                <mxCell id="75" value="" style="edgeStyle=none;html=1;fillColor=#f5f5f5;strokeColor=#666666;" edge="1" parent="w9Iu98WscyFDLbroQzuf-1" source="74" target="Yrwoq0YL18L5McrpzAKP-22">
                    <mxGeometry relative="1" as="geometry"/>
                </mxCell>
                <mxCell id="74" value="erase()" style="rounded=0;whiteSpace=wrap;html=1;shadow=0;labelBorderColor=none;strokeColor=#666666;fillColor=#f5f5f5;fontColor=#333333;" vertex="1" parent="w9Iu98WscyFDLbroQzuf-1">
                    <mxGeometry x="347.5" y="420" width="80" height="40" as="geometry"/>
                </mxCell>
                <mxCell id="77" value="value0" style="rounded=0;whiteSpace=wrap;html=1;shadow=0;labelBorderColor=none;strokeColor=#82b366;fillColor=#d5e8d4;fontColor=#000000;" vertex="1" parent="w9Iu98WscyFDLbroQzuf-1">
                    <mxGeometry x="267.5" y="490" width="80" height="40" as="geometry"/>
                </mxCell>
                <mxCell id="79" value="" style="rounded=0;whiteSpace=wrap;html=1;shadow=0;labelBorderColor=none;strokeColor=#666666;fillColor=#f5f5f5;fontColor=#333333;" vertex="1" parent="w9Iu98WscyFDLbroQzuf-1">
                    <mxGeometry x="507.5" y="490" width="80" height="40" as="geometry"/>
                </mxCell>
                <mxCell id="82" style="edgeStyle=orthogonalEdgeStyle;curved=1;html=1;exitX=0.5;exitY=1;exitDx=0;exitDy=0;entryX=0.419;entryY=1.025;entryDx=0;entryDy=0;entryPerimeter=0;fillColor=#f5f5f5;strokeColor=#666666;" edge="1" parent="w9Iu98WscyFDLbroQzuf-1" source="80" target="81">
                    <mxGeometry relative="1" as="geometry">
                        <mxPoint x="380" y="540" as="targetPoint"/>
                        <Array as="points">
                            <mxPoint x="468" y="560"/>
                            <mxPoint x="381" y="560"/>
                        </Array>
                    </mxGeometry>
                </mxCell>
                <mxCell id="80" value="value2" style="rounded=0;whiteSpace=wrap;html=1;shadow=0;labelBorderColor=none;strokeColor=#82b366;fillColor=#d5e8d4;fontColor=#000000;" vertex="1" parent="w9Iu98WscyFDLbroQzuf-1">
                    <mxGeometry x="427.5" y="490" width="80" height="40" as="geometry"/>
                </mxCell>
                <mxCell id="81" value="" style="rounded=0;whiteSpace=wrap;html=1;shadow=0;labelBorderColor=none;strokeColor=#666666;fillColor=#f5f5f5;fontColor=#333333;" vertex="1" parent="w9Iu98WscyFDLbroQzuf-1">
                    <mxGeometry x="347.5" y="490" width="80" height="40" as="geometry"/>
                </mxCell>
                <mxCell id="83" value="value0" style="rounded=0;whiteSpace=wrap;html=1;shadow=0;labelBorderColor=none;strokeColor=#82b366;fillColor=#d5e8d4;fontColor=#000000;" vertex="1" parent="w9Iu98WscyFDLbroQzuf-1">
                    <mxGeometry x="267.5" y="585" width="80" height="40" as="geometry"/>
                </mxCell>
                <mxCell id="84" value="" style="rounded=0;whiteSpace=wrap;html=1;shadow=0;labelBorderColor=none;strokeColor=#666666;fillColor=#f5f5f5;fontColor=#333333;" vertex="1" parent="w9Iu98WscyFDLbroQzuf-1">
                    <mxGeometry x="507.5" y="585" width="80" height="40" as="geometry"/>
                </mxCell>
                <mxCell id="85" value="value2" style="rounded=0;whiteSpace=wrap;html=1;shadow=0;labelBorderColor=none;strokeColor=#82b366;fillColor=#d5e8d4;fontColor=#000000;" vertex="1" parent="w9Iu98WscyFDLbroQzuf-1">
                    <mxGeometry x="347.5" y="585" width="80" height="40" as="geometry"/>
                </mxCell>
                <mxCell id="86" value="" style="rounded=0;whiteSpace=wrap;html=1;shadow=0;labelBorderColor=none;strokeColor=#666666;fillColor=#f5f5f5;fontColor=#333333;" vertex="1" parent="w9Iu98WscyFDLbroQzuf-1">
                    <mxGeometry x="427.5" y="585" width="80" height="40" as="geometry"/>
                </mxCell>
            </root>
        </mxGraphModel>
    </diagram>
</mxfile>